<?xml version="1.0" encoding="utf-8"?>
<!-- Generator: Adobe Illustrator 14.0.0, SVG Export Plug-In . SVG Version: 6.00 Build 43363)  -->
<!DOCTYPE svg PUBLIC "-//W3C//DTD SVG 1.0//EN" "http://www.w3.org/TR/2001/REC-SVG-20010904/DTD/svg10.dtd">
<svg version="1.0" xmlns="http://www.w3.org/2000/svg" xmlns:xlink="http://www.w3.org/1999/xlink" x="0px" y="0px" width="256px"
	 height="256px" viewBox="0 0 256 256" enable-background="new 0 0 256 256" xml:space="preserve">
<g id="Layer_2">
	<path fill="#231F20" d="M256,222c0,18.777-15.223,34-34,34H34c-18.778,0-34-15.223-34-34V34C0,15.222,15.222,0,34,0h188
		c18.777,0,34,15.222,34,34V222z"/>
</g>
<g id="Layer_1">
	<g>
		<g>
			<path fill="#FFFFFF" stroke="#231F20" stroke-width="8.9229" d="M229.895,128c0-56.263-45.642-101.884-101.895-101.884
				C71.737,26.116,26.116,71.737,26.116,128c0,56.253,45.621,101.895,101.884,101.895C184.253,229.895,229.895,184.253,229.895,128z
				"/>
			<path fill="#231F20" d="M128,26.116V128h101.895C229.895,71.737,184.253,26.116,128,26.116z"/>
			<path fill="#231F20" d="M128,229.895V128H26.116C26.116,184.273,71.737,229.895,128,229.895z"/>
		</g>
		<path fill="none" stroke="#FFFFFF" stroke-width="8.6604" d="M238.422,128c0-60.99-49.432-110.422-110.422-110.422
			C67.013,17.578,17.578,67.01,17.578,128c0,60.99,49.435,110.422,110.422,110.422C188.99,238.422,238.422,188.99,238.422,128z"/>
	</g>
</g>
</svg>
