<?xml version="1.0" encoding="utf-8"?>
<!-- Generator: Adobe Illustrator 14.0.0, SVG Export Plug-In . SVG Version: 6.00 Build 43363)  -->
<!DOCTYPE svg PUBLIC "-//W3C//DTD SVG 1.0//EN" "http://www.w3.org/TR/2001/REC-SVG-20010904/DTD/svg10.dtd">
<svg version="1.0" id="Layer_1" xmlns="http://www.w3.org/2000/svg" xmlns:xlink="http://www.w3.org/1999/xlink" x="0px" y="0px"
	 width="34px" height="25px" viewBox="0 0 34 25" enable-background="new 0 0 34 25" xml:space="preserve">
<g>
	<g>
		<path fill-rule="evenodd" clip-rule="evenodd" fill="#B0B0B0" d="M0,0c11.333,0,22.667,0,34,0c0,8.333,0,16.667,0,25
			c-11.333,0-22.667,0-34,0C0,16.667,0,8.333,0,0z M2,24c9.442-1.351,23.017,1.824,31,0c0.145-0.033-0.111-1.818,0-2
			c0-0.333,0-0.667,0-1s0-0.667,0-1c0-2,0-4,0-6c0-2.667,0-5.333,0-8c0-0.667,0-1.333,0-2c0-0.333,0-0.667,0-1s0-0.667,0-1
			c-1.625-1.922-4.965-0.959-7-1C19.455,0.869,9.779,1.097,2,1C0.357,1.654,0.941,9.116,1,14C1.045,17.781,0.201,22.052,2,24z"/>
		<path fill-rule="evenodd" clip-rule="evenodd" fill="#EDEDED" d="M2,1c0,0.333,0,0.667,0,1s0,0.667,0,1s0,0.667,0,1s0,0.667,0,1
			C1.832,7.168,5.547,5.453,7,6c0,1.667,0,3.333,0,5c0,1,0,2,0,3c-1.667,0-3.333,0-5,0c0,2,0,4,0,6c0,0.333,0,0.667,0,1s0,0.667,0,1
			c0,0.667,0,1.333,0,2c-1.799-1.948-0.955-6.219-1-10C0.941,9.116,0.357,1.654,2,1z"/>
		<path fill-rule="evenodd" clip-rule="evenodd" fill="#FDFDFD" d="M2,2c0-0.333,0-0.667,0-1c7.779,0.097,17.455-0.131,24,0
			c2.035,0.041,5.375-0.922,7,1C22.667,2,12.333,2,2,2z"/>
		<path fill-rule="evenodd" clip-rule="evenodd" fill="#FAFAFA" d="M2,3c0-0.333,0-0.667,0-1c10.333,0,20.667,0,31,0
			c0,0.333,0,0.667,0,1C22.667,3,12.333,3,2,3z"/>
		<path fill-rule="evenodd" clip-rule="evenodd" fill="#F7F7F7" d="M2,4c0-0.333,0-0.667,0-1c10.333,0,20.667,0,31,0
			c0,0.333,0,0.667,0,1C22.667,4,12.333,4,2,4z"/>
		<path fill-rule="evenodd" clip-rule="evenodd" fill="#515151" d="M7,6c1.481,0.186,0.917,2.417,1,4c0,0.333,0,0.667,0,1
			c-0.333,0-0.667,0-1,0C7,9.333,7,7.667,7,6z"/>
		<path fill-rule="evenodd" clip-rule="evenodd" fill="#515151" d="M18,10c0-1.333,0-2.667,0-4c1.634-0.451,1.634,5.451,0,5
			C18,10.667,18,10.333,18,10z"/>
		<path fill-rule="evenodd" clip-rule="evenodd" fill="#EDEDED" d="M28,6c1.667,0,3.333,0,5,0c0,2.667,0,5.333,0,8
			c-1.667,0-3.333,0-5,0C28,11.333,28,8.667,28,6z"/>
		<path fill-rule="evenodd" clip-rule="evenodd" fill="#B0B0B0" d="M8,11c0-0.333,0-0.667,0-1c3.333,0,6.667,0,10,0
			c0,0.333,0,0.667,0,1c-0.057,0.61-0.149,1.184-1,1c-2.667,0-5.333,0-8,0C8.39,11.943,7.816,11.851,8,11z"/>
		<path fill-rule="evenodd" clip-rule="evenodd" fill="#515151" d="M9,12c2.667,0,5.333,0,8,0c0.478,2.505,9.938-3.216,10,2
			c-6.333,0-12.667,0-19,0C7.997,12.997,8.81,12.81,9,12z"/>
		<path fill-rule="evenodd" clip-rule="evenodd" fill="#5C5C5C" d="M8,15c0-0.333,0-0.667,0-1c6.333,0,12.667,0,19,0
			c0,0.333,0,0.667,0,1C20.667,15,14.333,15,8,15z"/>
		<path fill-rule="evenodd" clip-rule="evenodd" fill="#676767" d="M8,16c0-0.333,0-0.667,0-1c6.333,0,12.667,0,19,0
			c0,0.333,0,0.667,0,1C20.667,16,14.333,16,8,16z"/>
		<path fill-rule="evenodd" clip-rule="evenodd" fill="#717171" d="M27,16c-0.224,0.776-0.027,1.973-1,2
			c-2.562-0.104-6.562,0.135-10,0c-2.922-0.114-7.958,1.559-8-2C14.333,16,20.667,16,27,16z"/>
		<path fill-rule="evenodd" clip-rule="evenodd" fill="#D2D2D2" d="M2,21c0-0.333,0-0.667,0-1c10.333,0,20.667,0,31,0
			c0,0.333,0,0.667,0,1C22.667,21,12.333,21,2,21z"/>
		<path fill-rule="evenodd" clip-rule="evenodd" fill="#D1D1D1" d="M2,22c0-0.333,0-0.667,0-1c10.333,0,20.667,0,31,0
			c0,0.333,0,0.667,0,1C22.667,22,12.333,22,2,22z"/>
		<path fill-rule="evenodd" clip-rule="evenodd" fill="#CFCFCF" d="M2,22c10.333,0,20.667,0,31,0c-0.111,0.182,0.145,1.967,0,2
			c-7.983,1.824-21.558-1.351-31,0C2,23.333,2,22.667,2,22z"/>
		<path fill-rule="evenodd" clip-rule="evenodd" fill="#C1C1C1" d="M7,6C6.816,5.149,7.39,5.057,8,5c1.064,2.27,6.286,0.381,9,1
			c0.333,0,0.667,0,1,0c0,1.333,0,2.667,0,4c-3.333,0-6.667,0-10,0C7.917,8.417,8.481,6.186,7,6z"/>
		<path fill-rule="evenodd" clip-rule="evenodd" fill="#393939" d="M17,5c3.675,0.325,8.854-0.853,11,1c0,2.667,0,5.333,0,8
			c0.319,2.319-0.161,3.839-1,5c-6.333,0-12.667,0-19,0c-0.839-1.161-1.319-2.681-1-5c0-1,0-2,0-3c0.333,0,0.667,0,1,0
			c-0.184,0.851,0.39,0.943,1,1c-0.19,0.81-1.003,0.997-1,2c0,0.333,0,0.667,0,1s0,0.667,0,1c0.042,3.559,5.078,1.886,8,2
			c3.438,0.135,7.438-0.104,10,0c0.973-0.027,0.776-1.224,1-2c0-0.333,0-0.667,0-1s0-0.667,0-1c-0.062-5.216-9.522,0.505-10-2
			c0.851,0.184,0.943-0.39,1-1c1.634,0.451,1.634-5.451,0-5c-0.333,0-0.667,0-1,0C17,5.667,17,5.333,17,5z"/>
		<path fill-rule="evenodd" clip-rule="evenodd" fill="#F6F6F6" d="M28,6c-2.146-1.853-7.325-0.675-11-1c-3,0-6,0-9,0
			C7.39,5.057,6.816,5.149,7,6C5.547,5.453,1.832,7.168,2,5c0-0.333,0-0.667,0-1c10.333,0,20.667,0,31,0c0,0.667,0,1.333,0,2
			C31.333,6,29.667,6,28,6z"/>
		<path fill-rule="evenodd" clip-rule="evenodd" fill="#D5D5D5" d="M7,14c-0.319,2.319,0.161,3.839,1,5c6.333,0,12.667,0,19,0
			c0.839-1.161,1.319-2.681,1-5c1.667,0,3.333,0,5,0c0,2,0,4,0,6c-10.333,0-20.667,0-31,0c0-2,0-4,0-6C3.667,14,5.333,14,7,14z"/>
		<path fill-rule="evenodd" clip-rule="evenodd" fill="#515151" d="M8,5c3,0,6,0,9,0c0,0.333,0,0.667,0,1
			C14.286,5.381,9.064,7.27,8,5z"/>
	</g>
</g>
</svg>
