<?xml version="1.0" encoding="utf-8"?>
<!-- Generator: Adobe Illustrator 14.0.0, SVG Export Plug-In . SVG Version: 6.00 Build 43363)  -->
<!DOCTYPE svg PUBLIC "-//W3C//DTD SVG 1.0//EN" "http://www.w3.org/TR/2001/REC-SVG-20010904/DTD/svg10.dtd">
<svg version="1.0" xmlns="http://www.w3.org/2000/svg" xmlns:xlink="http://www.w3.org/1999/xlink" x="0px" y="0px" width="512px"
	 height="512px" viewBox="0 0 512 512" enable-background="new 0 0 512 512" xml:space="preserve">
<g id="Layer_2">
	<path fill-rule="evenodd" clip-rule="evenodd" d="M500.264,467c0,18.777-15.223,34-34,34h-420c-18.778,0-34-15.223-34-34V47
		c0-18.778,15.222-34,34-34h420c18.777,0,34,15.222,34,34V467z"/>
</g>
<g id="Layer_1">
	<path fill-rule="evenodd" clip-rule="evenodd" fill="#D9D9D9" d="M223.857,266.922c4.795-0.435,9.439-2.181,15.518,0
		c5.556,1.991,10.109,10.912,15.52,11.087c8.192,0.257,16.977-12.548,28.822-13.303c17.14-1.1,30.809,12.714,42.125,22.17
		c7.751,6.475,25.167,21.994,39.906,13.301c4.213-2.484,10.225-9.646,2.217-15.52c-4.521-3.313-12.109,3.71-8.868-4.433
		c1.869-4.695,17.18-7.662,22.171-4.436c3.83,2.475,9.272,16.351,6.65,28.823c-2.9,13.798-28.373,28.463-46.557,31.038
		c-30.948,4.377-57.938-3.475-75.38-17.735c-6.017-4.923-5.256-8.817-8.868-8.87c-6.237-0.092-12.108,12.436-22.171,17.738
		c-26.587,13.995-89.053,10.791-104.2-11.087c-1.446-2.088-7.946-15.271-6.651-24.388c0.515-3.629,4.937-16.392,13.302-17.738
		c3.396-0.546,16.784,5.177,17.736,8.871c0.667,2.587-5.735,2.158-8.868,4.435c-2.548,1.848-4.43,2.168-4.435,6.648
		c-0.021,17.717,29.443,5.179,37.689,0c8.072-5.066,13.214-11.738,22.17-17.735C208.214,271.415,212.544,267.948,223.857,266.922z"
		/>
	
		<path fill-rule="evenodd" clip-rule="evenodd" fill="none" stroke="#D9D9D9" stroke-width="24.5844" stroke-linecap="round" stroke-linejoin="round" d="
		M437.814,88.413c-37.089-31.426-87.449-32.948-112.483-3.401c-18.394,21.71-17.972,54.146-1.751,82.295
		c-20.23-10.226-43.099-15.993-67.316-15.993s-47.085,5.767-67.316,15.993c16.22-28.148,16.643-60.585-1.751-82.295
		c-25.034-29.547-75.395-28.024-112.483,3.401c-37.091,31.422-46.868,80.85-21.836,110.395
		c18.606,21.961,51.202,26.744,81.942,14.856c-17.615,24.521-27.993,54.592-27.993,87.089c0,82.532,66.905,149.437,149.438,149.437
		c82.533,0,149.437-66.904,149.437-149.437c0-32.497-10.377-62.568-27.993-87.089c30.74,11.888,63.337,7.104,81.942-14.856
		C484.683,169.262,474.906,119.835,437.814,88.413z"/>
</g>
</svg>
