<?xml version="1.0" encoding="utf-8"?>
<!-- Generator: Adobe Illustrator 14.0.0, SVG Export Plug-In . SVG Version: 6.00 Build 43363)  -->
<!DOCTYPE svg PUBLIC "-//W3C//DTD SVG 1.0//EN" "http://www.w3.org/TR/2001/REC-SVG-20010904/DTD/svg10.dtd">
<svg version="1.0" id="Layer_1" xmlns="http://www.w3.org/2000/svg" xmlns:xlink="http://www.w3.org/1999/xlink" x="0px" y="0px"
	 width="512px" height="512px" viewBox="0 0 512 512" enable-background="new 0 0 512 512" xml:space="preserve">
<g>
	<path fill-rule="evenodd" clip-rule="evenodd" fill="#D9D9D9" d="M231.219,270.668c3.706-0.336,7.295-1.686,11.993,0
		c4.294,1.539,7.812,8.434,11.994,8.568c6.331,0.199,13.121-9.697,22.275-10.281c13.246-0.85,23.81,9.826,32.556,17.135
		c5.99,5.004,19.45,16.998,30.842,10.279c3.256-1.92,7.902-7.455,1.713-11.994c-3.493-2.561-9.358,2.867-6.854-3.426
		c1.444-3.629,13.277-5.922,17.135-3.428c2.96,1.912,7.166,12.637,5.14,22.275c-2.242,10.664-21.928,21.998-35.981,23.988
		c-23.918,3.383-44.777-2.686-58.257-13.707c-4.65-3.805-4.062-6.814-6.854-6.855c-4.82-0.07-9.358,9.611-17.135,13.709
		c-20.548,10.816-68.825,8.34-80.531-8.568c-1.118-1.613-6.141-11.803-5.14-18.848c0.398-2.805,3.815-12.668,10.28-13.709
		c2.624-0.422,12.971,4,13.708,6.855c0.515,2-4.433,1.668-6.854,3.428c-1.97,1.428-3.424,1.676-3.427,5.139
		c-0.017,13.691,22.755,4.002,29.128,0c6.238-3.916,10.212-9.072,17.134-13.707C219.129,274.141,222.476,271.461,231.219,270.668z"
		/>
	
		<path fill-rule="evenodd" clip-rule="evenodd" fill="none" stroke="#D9D9D9" stroke-width="19" stroke-linecap="round" stroke-linejoin="round" d="
		M396.575,132.708c-28.664-24.287-67.585-25.464-86.933-2.628c-14.216,16.778-13.89,41.847-1.354,63.602
		c-15.635-7.903-33.309-12.36-52.024-12.36c-18.716,0-36.39,4.457-52.025,12.36c12.536-21.754,12.862-46.823-1.354-63.602
		c-19.348-22.835-58.269-21.659-86.933,2.628c-28.666,24.285-36.222,62.485-16.876,85.319
		c14.379,16.973,39.571,20.668,63.329,11.481c-13.614,18.951-21.635,42.191-21.635,67.307c0,63.785,51.708,115.492,115.493,115.492
		c63.785,0,115.492-51.707,115.492-115.492c0-25.115-8.021-48.355-21.635-67.306c23.758,9.187,48.95,5.49,63.329-11.482
		C432.797,195.192,425.241,156.993,396.575,132.708z"/>
	<g>
		<path fill="#B3B3B3" d="M192.205,330.856c1.212,0.398,2.193,1.129,2.944,2.191c0.602,0.859,1.012,1.789,1.231,2.789
			c0.219,1,0.328,1.953,0.328,2.859c0,2.297-0.461,4.242-1.384,5.836c-1.251,2.148-3.183,3.223-5.794,3.223h-7.447v-17.273h7.447
			C190.603,330.497,191.494,330.622,192.205,330.856z M185.588,333.481v11.273h3.333c1.706,0,2.896-0.84,3.568-2.52
			c0.368-0.922,0.552-2.02,0.552-3.293c0-1.758-0.276-3.107-0.827-4.049c-0.552-0.941-1.649-1.412-3.293-1.412H185.588z"/>
		<path fill="#B3B3B3" d="M210.485,330.927c0.636,0.273,1.175,0.676,1.617,1.207c0.365,0.438,0.655,0.922,0.868,1.453
			c0.214,0.531,0.32,1.137,0.32,1.816c0,0.82-0.207,1.627-0.621,2.42s-1.098,1.354-2.051,1.682c0.797,0.32,1.361,0.775,1.693,1.365
			s0.498,1.49,0.498,2.701v1.16c0,0.789,0.031,1.324,0.096,1.605c0.095,0.445,0.316,0.773,0.666,0.984v0.434h-3.984
			c-0.109-0.383-0.188-0.691-0.234-0.926c-0.094-0.484-0.145-0.98-0.152-1.488l-0.023-1.605c-0.015-1.102-0.205-1.836-0.571-2.203
			c-0.365-0.367-1.051-0.551-2.056-0.551h-3.525v6.773h-3.527v-17.273h8.262C208.94,330.505,209.85,330.653,210.485,330.927z
			 M203.025,333.481v4.641h3.885c0.771,0,1.35-0.094,1.736-0.281c0.682-0.328,1.023-0.977,1.023-1.945c0-1.047-0.33-1.75-0.99-2.109
			c-0.371-0.203-0.928-0.305-1.67-0.305H203.025z"/>
		<path fill="#B3B3B3" d="M221.688,330.481h4.084l6.111,17.273h-3.914l-1.14-3.551h-6.361l-1.171,3.551h-3.775L221.688,330.481z
			 M221.449,341.228h4.424l-2.182-6.797L221.449,341.228z"/>
		<path fill="#B3B3B3" d="M245.693,335.872c-0.273-1.18-0.941-2.004-2.004-2.473c-0.594-0.258-1.254-0.387-1.98-0.387
			c-1.391,0-2.533,0.524-3.428,1.573s-1.342,2.626-1.342,4.73c0,2.121,0.484,3.622,1.453,4.504c0.969,0.881,2.07,1.321,3.305,1.321
			c1.211,0,2.203-0.348,2.977-1.042c0.773-0.695,1.25-1.605,1.43-2.731h-3.996v-2.883h7.195v9.27h-2.391l-0.363-2.156
			c-0.695,0.816-1.32,1.393-1.875,1.727c-0.953,0.583-2.125,0.875-3.516,0.875c-2.289,0-4.164-0.793-5.625-2.377
			c-1.523-1.593-2.285-3.771-2.285-6.535c0-2.795,0.77-5.036,2.309-6.723s3.574-2.529,6.105-2.529c2.195,0,3.959,0.557,5.291,1.67
			s2.096,2.502,2.291,4.166H245.693z"/>
		<path fill="#B3B3B3" d="M269.523,330.481h3.75l-5.889,17.273h-3.41l-5.842-17.273h3.855l3.75,13.113L269.523,330.481z"/>
		<path fill="#B3B3B3" d="M278.717,347.755h-3.586v-17.273h3.586V347.755z"/>
		<path fill="#B3B3B3" d="M292.213,330.856c1.212,0.398,2.193,1.129,2.944,2.191c0.602,0.859,1.012,1.789,1.231,2.789
			c0.219,1,0.328,1.953,0.328,2.859c0,2.297-0.461,4.242-1.384,5.836c-1.251,2.148-3.183,3.223-5.794,3.223h-7.447v-17.273h7.447
			C290.61,330.497,291.502,330.622,292.213,330.856z M285.596,333.481v11.273h3.333c1.706,0,2.896-0.84,3.568-2.52
			c0.368-0.922,0.552-2.02,0.552-3.293c0-1.758-0.276-3.107-0.827-4.049c-0.552-0.941-1.649-1.412-3.293-1.412H285.596z"/>
		<path fill="#B3B3B3" d="M312.197,333.54h-9.141v3.668h8.391v3h-8.391v4.441h9.562v3.105h-13.09v-17.273h12.668V333.54z"/>
		<path fill="#B3B3B3" d="M328.732,346.22c-1.305,1.344-3.191,2.016-5.66,2.016s-4.355-0.672-5.66-2.016
			c-1.75-1.648-2.625-4.023-2.625-7.125c0-3.164,0.875-5.539,2.625-7.125c1.305-1.344,3.191-2.016,5.66-2.016
			s4.355,0.672,5.66,2.016c1.742,1.586,2.613,3.961,2.613,7.125C331.346,342.196,330.475,344.571,328.732,346.22z M326.477,343.595
			c0.84-1.055,1.26-2.555,1.26-4.5c0-1.938-0.42-3.436-1.26-4.494s-1.975-1.588-3.404-1.588s-2.57,0.527-3.422,1.582
			s-1.277,2.555-1.277,4.5s0.426,3.445,1.277,4.5s1.992,1.582,3.422,1.582S325.637,344.649,326.477,343.595z"/>
		<path fill="#B3B3B3" d="M224.729,376.555v-17.273h3.586v6.586h6.715v-6.586h3.586v17.273h-3.586v-7.711h-6.715v7.711H224.729z"/>
		<path fill="#B3B3B3" d="M254.857,362.34h-9.141v3.668h8.391v3h-8.391v4.441h9.562v3.105h-13.09v-17.273h12.668V362.34z"/>
		<path fill="#B3B3B3" d="M269.161,359.727c0.636,0.273,1.175,0.676,1.617,1.207c0.365,0.438,0.655,0.922,0.868,1.453
			c0.214,0.531,0.32,1.137,0.32,1.816c0,0.82-0.207,1.627-0.621,2.42s-1.098,1.354-2.051,1.682c0.797,0.32,1.361,0.775,1.693,1.365
			s0.498,1.49,0.498,2.701v1.16c0,0.789,0.031,1.324,0.096,1.605c0.095,0.445,0.316,0.773,0.666,0.984v0.434h-3.984
			c-0.109-0.383-0.188-0.691-0.234-0.926c-0.094-0.484-0.145-0.98-0.152-1.488l-0.023-1.605c-0.015-1.102-0.205-1.836-0.571-2.203
			c-0.365-0.367-1.051-0.551-2.056-0.551h-3.525v6.773h-3.527v-17.273h8.262C267.616,359.305,268.525,359.453,269.161,359.727z
			 M261.701,362.281v4.641h3.885c0.771,0,1.35-0.094,1.736-0.281c0.682-0.328,1.023-0.977,1.023-1.945c0-1.047-0.33-1.75-0.99-2.109
			c-0.371-0.203-0.928-0.305-1.67-0.305H261.701z"/>
		<path fill="#B3B3B3" d="M288.197,362.34h-9.141v3.668h8.391v3h-8.391v4.441h9.562v3.105h-13.09v-17.273h12.668V362.34z"/>
	</g>
</g>
<path fill-rule="evenodd" clip-rule="evenodd" fill="none" stroke="#B3B3B3" stroke-width="19" stroke-dasharray="78" d="
	M500.264,467c0,18.777-15.223,34-34,34h-420c-18.778,0-34-15.223-34-34V47c0-18.778,15.222-34,34-34h420c18.777,0,34,15.222,34,34
	V467z"/>
</svg>
